<?xml version="1.0" encoding="UTF-8"?>
<svg id="Capa_2" data-name="Capa 2" xmlns="http://www.w3.org/2000/svg" xmlns:xlink="http://www.w3.org/1999/xlink" viewBox="0 0 138.17 133.85">
  <defs>
    <style>
      .cls-1 {
        fill: url(#Degradado_sin_nombre_16-3);
      }

      .cls-1, .cls-2, .cls-3, .cls-4 {
        stroke-width: 0px;
      }

      .cls-2 {
        fill: url(#Degradado_sin_nombre_16);
      }

      .cls-3 {
        fill: url(#Degradado_sin_nombre_16-4);
      }

      .cls-4 {
        fill: url(#Degradado_sin_nombre_16-2);
      }
    </style>
    <radialGradient id="Degradado_sin_nombre_16" data-name="Degradado sin nombre 16" cx="571.99" cy="2260.85" fx="571.99" fy="2260.85" r="178.94" gradientTransform="translate(-2192.05 551.28) rotate(-90)" gradientUnits="userSpaceOnUse">
      <stop offset="0" stop-color="#002c38"/>
      <stop offset="0" stop-color="#0a8592"/>
      <stop offset="1" stop-color="#01303c"/>
    </radialGradient>
    <radialGradient id="Degradado_sin_nombre_16-2" data-name="Degradado sin nombre 16" cx="571.99" cy="2260.85" fx="571.99" fy="2260.85" r="178.94" xlink:href="#Degradado_sin_nombre_16"/>
    <radialGradient id="Degradado_sin_nombre_16-3" data-name="Degradado sin nombre 16" cx="571.99" fx="571.99" r="178.94" xlink:href="#Degradado_sin_nombre_16"/>
    <radialGradient id="Degradado_sin_nombre_16-4" data-name="Degradado sin nombre 16" cx="571.99" cy="2260.85" fx="571.99" fy="2260.85" r="178.94" xlink:href="#Degradado_sin_nombre_16"/>
  </defs>
  <g id="Capa_2-2" data-name="Capa 2">
    <g>
      <path class="cls-2" d="M113.1,14.86s-43.29-12.73-50.63,21.9c-2.34,11.05,2.86,18.11,3.62,23.54,1.41,10.17-4.98,19.8-14.95,22.29l-.99.25c-11.19,2.8-21.63-4.34-26.02-15-3.86-9.37-5.33-21.31-2.94-33.43,4.88-24.77,48.31-51.98,91.91-19.54Z"/>
      <path class="cls-4" d="M86.51,18.29c-1.37.03-1.83,1.83-.64,2.52,9.74,5.65,32.83,22.57,31.97,55.71-1.16,44.97-34.36,57.33-34.36,57.33,0,0,12.45-1.37,26.97-11.49,11.85-8.26,27.57-24.4,27.72-50.38.23-40.48-37.6-54.02-51.66-53.7Z"/>
      <path class="cls-1" d="M75.48,38.62c5.68-5.4,14.56-5.64,20.47-.49,12.08,10.52,15.55,23.62,15.66,34.96.17,17.93-8.6,34.89-23.18,45.32-32.4,23.18-62.8-.46-62.8-.46,0,0,24.52,13.51,46.09-10.74,12.45-14,8.36-37.12.97-50.1-3.45-6.06-2.27-13.71,2.79-18.51h0Z"/>
      <path class="cls-3" d="M73.29,69.82c-.4-1.44-2.48-1.31-2.76.16-1.5,8.03-6.34,21.61-21.86,22.08-27.44.83-35.69-20.52-35.69-47.52,0-27-12.98-24.46-12.98-24.46,0,0,0,18,0,45,0,27,19.31,53.05,47.88,46.9,16.23-3.49,31.12-21.64,25.42-42.16Z"/>
    </g>
  </g>
</svg>